<?xml version="1.0" encoding="UTF-8"?>
<svg xmlns="http://www.w3.org/2000/svg" xmlns:xlink="http://www.w3.org/1999/xlink" viewBox="0 0 50 50" width="50px" height="50px">
<g id="surface114125357">
<rect x="0" y="0" width="50" height="50" style="fill:rgb(28.235295%,80.784315%,79.607844%);fill-opacity:1;stroke:none;"/>
<path style=" stroke:none;fill-rule:nonzero;fill:#fff;fill-opacity:1;" d="M 23.671875 1.90625 C 22.878906 1.921875 22.082031 1.980469 21.273438 2.097656 C 20.085938 2.355469 18.941406 2.769531 17.917969 3.308594 C 16.628906 3.894531 15.292969 4.5 14.089844 4.585938 C 14.027344 4.589844 13.96875 4.601562 13.910156 4.617188 C 12.222656 5.050781 10.769531 6.089844 9.832031 7.523438 L 9.679688 7.742188 C 9.652344 7.785156 9.621094 7.835938 9.597656 7.882812 C 8.773438 9.609375 8.554688 11.585938 8.996094 13.523438 C 9.285156 14.457031 9.625 15.355469 9.953125 16.226562 L 10.054688 16.488281 C 10.828125 18.296875 11.386719 20.199219 11.722656 22.136719 C 11.738281 22.234375 11.769531 22.328125 11.8125 22.417969 C 12.144531 23.070312 12.402344 23.757812 12.585938 24.496094 C 12.640625 24.679688 12.699219 24.867188 12.753906 25.058594 C 13.816406 24.121094 15.09375 23.414062 16.496094 22.890625 C 15.625 20.632812 15.078125 18.027344 14.597656 15.691406 C 13.992188 12.71875 13.476562 10.1875 12.476562 9.390625 C 12.359375 9.226562 12.277344 9.042969 12.246094 8.84375 C 12.210938 8.464844 12.289062 8.085938 12.46875 7.753906 C 12.644531 7.378906 12.90625 7.054688 13.238281 6.816406 C 13.449219 6.671875 13.691406 6.578125 13.945312 6.546875 L 13.945312 6.59375 C 13.695312 6.628906 13.453125 6.71875 13.246094 6.867188 C 13.023438 7.140625 12.828125 7.433594 12.65625 7.746094 C 12.164062 8.726562 13.203125 8.679688 13.589844 9.214844 C 14.601562 10.027344 14.683594 12.699219 15.292969 15.679688 C 15.769531 17.996094 16.046875 20.574219 16.710938 22.816406 C 17.480469 22.539062 18.285156 22.316406 19.113281 22.148438 C 18.019531 19.621094 17.753906 16.6875 17.515625 13.96875 C 17.253906 11.050781 17.019531 8.375 15.808594 6.730469 C 15.601562 6.5 15.496094 6.199219 15.519531 5.890625 C 15.542969 5.746094 15.625 5.621094 15.742188 5.535156 C 15.875 5.441406 16.03125 5.382812 16.195312 5.371094 C 16.71875 5.328125 17.238281 5.472656 17.664062 5.777344 L 17.644531 5.800781 C 17.652344 5.804688 17.65625 5.804688 17.664062 5.8125 L 17.628906 5.8125 L 17.640625 5.800781 C 17.339844 5.558594 16.945312 5.46875 16.570312 5.5625 C 16.421875 5.578125 16.273438 5.628906 16.148438 5.714844 C 16.039062 5.789062 15.964844 5.90625 15.941406 6.039062 C 15.941406 6.234375 15.789062 6.265625 15.941406 6.632812 C 17.167969 8.269531 18.128906 11.039062 18.355469 13.960938 C 18.597656 16.675781 18.4375 19.597656 19.292969 22.113281 C 20.226562 21.933594 21.175781 21.8125 22.136719 21.746094 C 21.035156 18.085938 20.332031 14.316406 20.078125 10.5 C 19.957031 8.933594 20.082031 7.363281 20.449219 5.835938 C 20.804688 4.625 21.425781 3.824219 22.390625 3.683594 C 22.746094 3.636719 23.105469 3.664062 23.445312 3.761719 L 23.445312 3.8125 C 23.097656 3.746094 22.742188 3.757812 22.398438 3.84375 C 21.589844 4.03125 21.6875 4.53125 21.15625 5.671875 C 20.746094 7.140625 20.613281 8.671875 20.765625 10.1875 C 21.304688 13.71875 21.945312 18.242188 22.546875 21.71875 C 23.554688 21.667969 24.566406 21.667969 25.554688 21.726562 C 24.769531 15.886719 24.089844 9.089844 27.464844 4.109375 L 27.511719 4.109375 C 26.03125 8.058594 25.828125 15.578125 25.652344 18.003906 C 25.59375 18.816406 25.652344 20.328125 25.71875 21.734375 C 27.140625 21.824219 28.515625 22.011719 29.777344 22.277344 C 29.765625 19.789062 29.929688 17.300781 30.300781 14.835938 C 30.839844 11.285156 32.0625 7.875 33.902344 4.792969 L 33.902344 4.84375 C 33.371094 8.90625 31.328125 10.804688 30.566406 14.824219 C 30.339844 17.195312 30.105469 19.824219 29.941406 22.316406 C 30.679688 22.476562 31.382812 22.65625 32.027344 22.859375 C 32.601562 23.042969 33.203125 23.265625 33.78125 23.535156 C 34.167969 17.160156 37.4375 10.003906 39.277344 9.617188 C 37.738281 14.359375 35.9375 19 34.09375 23.6875 C 34.582031 23.925781 35.042969 24.203125 35.441406 24.511719 C 36.257812 23.019531 37.449219 21.570312 38.605469 20.160156 C 40.730469 17.578125 42.929688 14.90625 42.738281 11.921875 C 42.730469 11.785156 42.695312 11.652344 42.632812 11.53125 C 42.320312 10.914062 41.972656 10.316406 41.535156 9.644531 L 41.453125 9.507812 C 41.351562 9.351562 41.25 9.195312 41.144531 9.046875 C 41.070312 8.933594 40.988281 8.828125 40.910156 8.722656 L 40.824219 8.609375 C 40.664062 8.398438 40.507812 8.1875 40.34375 7.988281 C 40.253906 7.878906 40.167969 7.78125 40.050781 7.648438 C 39.871094 7.441406 39.691406 7.238281 39.507812 7.050781 L 39.265625 6.804688 C 39.050781 6.589844 38.839844 6.390625 38.628906 6.207031 L 38.472656 6.074219 C 35.816406 3.804688 33.085938 3.210938 31.421875 2.847656 L 30.492188 2.636719 C 28.328125 2.222656 26.039062 1.863281 23.667969 1.90625 Z M 24.410156 23.710938 C 20.160156 23.652344 15.757812 24.597656 13.460938 27.179688 L 14.40625 29.886719 C 14.5 30.15625 14.707031 30.371094 14.972656 30.480469 C 15.234375 30.589844 15.53125 30.582031 15.789062 30.457031 C 18.410156 29.183594 24.550781 26.199219 33.027344 31.496094 C 33.1875 31.597656 33.371094 31.648438 33.558594 31.648438 C 33.691406 31.648438 33.824219 31.625 33.953125 31.566406 C 34.253906 31.4375 34.472656 31.167969 34.539062 30.84375 C 34.742188 29.800781 34.816406 28.125 34.75 26.765625 L 34.769531 26.675781 C 34.574219 26.246094 33.59375 25.457031 31.421875 24.765625 C 29.460938 24.144531 26.964844 23.746094 24.414062 23.710938 Z M 18.058594 32.378906 L 17.605469 32.683594 C 17.796875 33.007812 18.046875 33.292969 18.339844 33.527344 C 18.566406 33.671875 18.835938 33.742188 19.109375 33.726562 C 19.246094 33.726562 19.382812 33.707031 19.519531 33.671875 L 21.03125 33.121094 C 21.132812 33.082031 21.242188 33.0625 21.351562 33.0625 C 21.515625 33.050781 21.683594 33.097656 21.824219 33.191406 C 22.011719 33.34375 22.179688 33.527344 22.3125 33.734375 L 22.742188 33.496094 L 22.742188 33.484375 C 22.554688 33.195312 22.324219 32.9375 22.054688 32.726562 C 21.839844 32.574219 21.582031 32.496094 21.320312 32.5 C 21.230469 32.496094 21.140625 32.515625 21.0625 32.550781 L 19.425781 33.097656 C 19.320312 33.128906 19.210938 33.140625 19.101562 33.140625 C 18.90625 33.152344 18.714844 33.097656 18.554688 32.988281 C 18.355469 32.8125 18.1875 32.609375 18.058594 32.382812 Z M 34.847656 33.472656 C 34.695312 33.484375 34.550781 33.5625 34.449219 33.683594 C 34.332031 33.785156 34.257812 33.925781 34.238281 34.082031 C 34.226562 34.117188 34.226562 34.152344 34.238281 34.1875 C 34.589844 34.558594 35.039062 34.820312 35.535156 34.945312 C 36.035156 35.097656 36.53125 35.246094 37.015625 35.382812 C 37.507812 35.546875 37.925781 35.878906 38.195312 36.324219 C 38.203125 36.34375 38.203125 36.363281 38.195312 36.382812 C 38.195312 36.476562 37.972656 36.628906 37.542969 36.847656 C 37.324219 36.972656 36.996094 37.25 36.449219 37.664062 C 36.109375 37.941406 35.746094 38.191406 35.359375 38.402344 C 35.03125 38.546875 34.742188 38.773438 34.523438 39.058594 C 34.519531 39.0625 34.515625 39.066406 34.507812 39.074219 C 34.335938 39.273438 34.355469 39.578125 34.554688 39.753906 C 34.660156 39.851562 34.800781 39.90625 34.945312 39.90625 C 35.046875 39.902344 35.148438 39.875 35.238281 39.828125 C 35.945312 39.382812 36.621094 38.894531 37.265625 38.371094 C 37.917969 37.828125 38.601562 37.320312 39.308594 36.847656 C 39.703125 36.605469 39.890625 36.355469 39.890625 36.097656 C 39.878906 35.925781 39.785156 35.769531 39.640625 35.679688 C 38.796875 34.921875 37.804688 34.359375 36.726562 34.023438 L 35.933594 33.679688 C 35.667969 33.558594 35.382812 33.488281 35.089844 33.472656 C 35.011719 33.460938 34.929688 33.460938 34.847656 33.472656 Z M 13.066406 33.527344 C 12.367188 34.050781 11.605469 34.480469 10.796875 34.804688 C 9.992188 35.136719 9.230469 35.5625 8.527344 36.070312 C 8.1875 36.378906 7.988281 36.8125 7.980469 37.265625 C 8.023438 37.441406 8.144531 37.585938 8.308594 37.648438 C 8.457031 37.699219 8.613281 37.757812 8.757812 37.816406 C 10.253906 38.453125 11.652344 39.132812 12.964844 39.859375 C 13.140625 39.988281 13.300781 40.125 13.453125 40.273438 C 13.554688 40.320312 13.664062 40.339844 13.773438 40.339844 C 14.039062 40.34375 14.304688 40.25 14.507812 40.078125 C 14.722656 39.929688 14.832031 39.675781 14.796875 39.417969 C 14.808594 39.230469 14.695312 39.054688 14.519531 38.984375 L 12.257812 37.992188 C 11.507812 37.675781 10.777344 37.308594 10.074219 36.898438 C 10.566406 36.285156 11.234375 35.828125 11.984375 35.589844 C 12.734375 35.347656 13.421875 34.957031 14.011719 34.4375 C 14.097656 34.355469 14.144531 34.242188 14.140625 34.128906 C 14.136719 33.960938 14.0625 33.808594 13.929688 33.707031 C 13.773438 33.585938 13.582031 33.523438 13.382812 33.527344 Z M 28.871094 35.070312 C 28.429688 35.054688 28 35.214844 27.675781 35.515625 C 27.308594 35.875 27.152344 36.402344 27.265625 36.90625 C 27.3125 37.382812 27.503906 37.832031 27.808594 38.203125 C 28.070312 38.546875 28.472656 38.746094 28.902344 38.746094 C 29.183594 38.742188 29.460938 38.667969 29.703125 38.53125 C 30.242188 38.144531 30.523438 37.496094 30.441406 36.84375 C 30.414062 36.105469 30.242188 35.605469 29.894531 35.367188 C 29.59375 35.164062 29.234375 35.0625 28.867188 35.074219 Z M 20.394531 35.109375 C 19.953125 35.09375 19.523438 35.25 19.199219 35.546875 C 18.832031 35.910156 18.671875 36.433594 18.785156 36.9375 C 18.835938 37.414062 19.027344 37.863281 19.328125 38.234375 C 19.585938 38.578125 19.992188 38.78125 20.421875 38.777344 C 20.703125 38.773438 20.980469 38.699219 21.222656 38.5625 C 21.714844 38.265625 21.957031 37.710938 21.957031 36.875 C 22.019531 36.328125 21.820312 35.78125 21.421875 35.402344 C 21.117188 35.199219 20.757812 35.097656 20.394531 35.109375 Z M 20.371094 36.285156 C 20.675781 36.285156 20.921875 36.527344 20.921875 36.828125 C 20.921875 37.132812 20.675781 37.378906 20.371094 37.378906 C 20.070312 37.378906 19.828125 37.132812 19.828125 36.828125 C 19.828125 36.527344 20.070312 36.285156 20.371094 36.285156 Z M 28.695312 36.347656 C 28.996094 36.34375 29.242188 36.589844 29.242188 36.890625 C 29.242188 37.191406 28.996094 37.4375 28.695312 37.4375 C 28.394531 37.4375 28.152344 37.191406 28.152344 36.890625 C 28.152344 36.589844 28.394531 36.347656 28.695312 36.347656 Z M 23.402344 40.179688 C 23.390625 40.191406 23.386719 40.207031 23.378906 40.222656 L 23.378906 40.269531 C 23.453125 40.476562 23.546875 40.675781 23.660156 40.867188 C 23.765625 41.050781 23.894531 41.21875 24.042969 41.367188 C 24.179688 41.507812 24.335938 41.621094 24.511719 41.710938 C 24.6875 41.78125 24.871094 41.820312 25.058594 41.828125 L 25.082031 41.851562 C 25.234375 41.851562 25.382812 41.824219 25.523438 41.769531 C 25.660156 41.714844 25.785156 41.644531 25.902344 41.558594 C 26.015625 41.46875 26.121094 41.371094 26.214844 41.265625 C 26.308594 41.160156 26.386719 41.050781 26.453125 40.9375 C 26.519531 40.832031 26.582031 40.726562 26.628906 40.613281 C 26.667969 40.53125 26.703125 40.449219 26.722656 40.363281 L 26.722656 40.316406 C 26.714844 40.300781 26.703125 40.28125 26.695312 40.265625 C 26.554688 40.484375 26.378906 40.675781 26.171875 40.839844 C 26.015625 40.984375 25.828125 41.101562 25.625 41.171875 C 25.421875 41.242188 25.207031 41.277344 24.988281 41.277344 C 24.804688 41.277344 24.617188 41.253906 24.441406 41.199219 C 24.289062 41.152344 24.148438 41.078125 24.019531 40.980469 C 23.894531 40.878906 23.777344 40.761719 23.675781 40.632812 C 23.574219 40.492188 23.480469 40.339844 23.402344 40.179688 Z M 21.957031 42.277344 C 19.773438 42.390625 18.5 45.195312 15.453125 42.609375 C 14.625 47.578125 20.695312 48.070312 23.191406 45.824219 C 24.917969 44.285156 24.429688 42.136719 21.957031 42.277344 Z M 26.960938 42.277344 C 24.875 42.402344 24.550781 44.382812 26.167969 45.824219 C 28.664062 48.066406 34.734375 47.578125 33.902344 42.609375 C 30.855469 45.195312 29.585938 42.390625 27.398438 42.277344 C 27.246094 42.265625 27.101562 42.265625 26.960938 42.277344 Z M 26.960938 42.277344 "/>
</g>
</svg>
